<svg xmlns="http://www.w3.org/2000/svg" viewBox="0 0 64 64">
  <!-- Remove the background rect element -->
  
  <!-- Input Layer -->
  <circle cx="12" cy="16" r="4" fill="#4a86e8"/>
  <circle cx="12" cy="32" r="4" fill="#4a86e8"/>
  <circle cx="12" cy="48" r="4" fill="#4a86e8"/>
  
  <!-- Hidden Layer 1 -->
  <circle cx="28" cy="12" r="4" fill="#4a86e8"/>
  <circle cx="28" cy="28" r="4" fill="#4a86e8"/>
  <circle cx="28" cy="44" r="4" fill="#4a86e8"/>
  <circle cx="28" cy="60" r="4" fill="#4a86e8"/>
  
  <!-- Hidden Layer 2 -->
  <circle cx="44" cy="16" r="4" fill="#4a86e8"/>
  <circle cx="44" cy="32" r="4" fill="#4a86e8"/>
  <circle cx="44" cy="48" r="4" fill="#4a86e8"/>
  
  <!-- Output Layer -->
  <circle cx="60" cy="32" r="4" fill="#4a86e8"/>
  
  <!-- Connections -->
  <g stroke="#4a86e8" stroke-width="1" opacity="0.6">
    <!-- Input to Hidden 1 -->
    <line x1="16" y1="16" x2="24" y2="12"/>
    <line x1="16" y1="16" x2="24" y2="28"/>
    <line x1="16" y1="32" x2="24" y2="28"/>
    <line x1="16" y1="32" x2="24" y2="44"/>
    <line x1="16" y1="48" x2="24" y2="44"/>
    <line x1="16" y1="48" x2="24" y2="60"/>
    
    <!-- Hidden 1 to Hidden 2 -->
    <line x1="32" y1="12" x2="40" y2="16"/>
    <line x1="32" y1="28" x2="40" y2="16"/>
    <line x1="32" y1="28" x2="40" y2="32"/>
    <line x1="32" y1="44" x2="40" y2="32"/>
    <line x1="32" y1="44" x2="40" y2="48"/>
    <line x1="32" y1="60" x2="40" y2="48"/>
    
    <!-- Hidden 2 to Output -->
    <line x1="48" y1="16" x2="56" y2="32"/>
    <line x1="48" y1="32" x2="56" y2="32"/>
    <line x1="48" y1="48" x2="56" y2="32"/>
  </g>
  
  <!-- Data flow animation -->
  <circle r="1.5" fill="#ffcc00">
    <animateMotion 
      path="M12,32 Q28,12 44,32 T60,32" 
      dur="3s" 
      repeatCount="indefinite"/>
  </circle>
</svg>
